<svg width="578.418" height="113.428" viewBox="0 0 578.418 113.428" xmlns="http://www.w3.org/2000/svg">
<!-- https://danmarshall.github.io/google-font-to-svg-path/ -->
<title>tps-logo</title>
<defs>
    <linearGradient x1="50%" y1="3.92617985%" x2="50%" y2="100%" id="linearGradient-1">
        <stop stop-color="#4582ec" offset="0%"></stop>
        <stop stop-color="#035aa6" offset="100%"></stop>
    </linearGradient>
</defs>
<g id="tps-logo" fill="url(#linearGradient-1)">
  <path d="M 445.578 13.376 A 1.388 1.388 0 0 0 445.557 13.33 Q 445.117 12.793 444.482 11.792 A 29.028 29.028 0 0 0 443.787 10.748 A 39.864 39.864 0 0 0 442.969 9.619 A 30.659 30.659 0 0 0 442.275 8.729 A 37.579 37.579 0 0 0 440.967 7.202 Q 439.844 5.957 438.428 4.932 A 12.179 12.179 0 0 0 438.339 4.868 A 12.93 12.93 0 0 0 435.278 3.271 Q 433.545 2.637 431.445 2.637 A 35.69 35.69 0 0 0 419.58 4.687 A 52.527 52.527 0 0 0 408.423 10.156 A 62.921 62.921 0 0 0 398.633 17.944 Q 394.141 22.314 390.845 26.953 A 52.436 52.436 0 0 0 388.575 30.422 A 42.09 42.09 0 0 0 385.693 36.157 A 32.714 32.714 0 0 0 385.23 37.364 Q 384.585 39.15 384.239 40.799 A 17.705 17.705 0 0 0 383.838 44.434 A 5.527 5.527 0 0 0 383.985 45.681 A 7.149 7.149 0 0 0 384.424 46.973 A 12.005 12.005 0 0 0 384.918 47.958 A 14.274 14.274 0 0 0 385.986 49.585 A 23.806 23.806 0 0 0 386.297 49.988 A 26.497 26.497 0 0 0 388.184 52.124 A 38.688 38.688 0 0 0 390.723 54.492 A 3.468 3.468 0 0 0 391.466 55.007 A 4.756 4.756 0 0 0 392.236 55.322 A 9.883 9.883 0 0 0 392.36 55.36 A 10.717 10.717 0 0 0 394.189 55.737 Q 395.215 55.859 396.24 55.884 A 90.116 90.116 0 0 0 397.229 55.902 A 71.501 71.501 0 0 0 398.145 55.908 A 66.765 66.765 0 0 0 400.757 55.859 A 49.998 49.998 0 0 0 403.125 55.713 Q 405.371 55.518 407.52 55.249 A 142.453 142.453 0 0 1 408.059 55.183 A 156.616 156.616 0 0 1 411.963 54.761 A 56.604 56.604 0 0 1 414.392 54.584 A 77.055 77.055 0 0 1 417.09 54.492 A 24.542 24.542 0 0 1 417.009 54.775 A 21.452 21.452 0 0 1 412.988 62.476 Q 410.156 65.918 406.445 68.408 Q 402.734 70.898 398.462 72.534 A 60.87 60.87 0 0 1 397.661 72.834 A 54.972 54.972 0 0 1 389.99 75.049 A 59.031 59.031 0 0 1 387.152 75.572 A 48.934 48.934 0 0 1 382.007 76.123 Q 379.484 76.253 377.45 76.123 A 23.933 23.933 0 0 1 375.537 75.928 Q 375.72 76.294 376.151 76.907 A 23.171 23.171 0 0 0 376.465 77.344 A 44.138 44.138 0 0 0 376.509 77.404 Q 376.843 77.855 377.228 78.352 A 73.248 73.248 0 0 0 378.052 79.395 Q 378.955 80.518 380.005 81.738 Q 381.055 82.959 382.056 84.058 A 95.156 95.156 0 0 0 383.026 85.107 A 74.33 74.33 0 0 0 383.936 86.06 A 34.339 34.339 0 0 0 384.329 86.458 Q 384.741 86.867 385.062 87.154 A 8.995 8.995 0 0 0 385.352 87.402 A 30.173 30.173 0 0 0 388.757 87.205 A 36.928 36.928 0 0 0 393.994 86.206 A 51.078 51.078 0 0 0 402.905 82.935 A 55.437 55.437 0 0 0 411.23 78.052 Q 415.186 75.244 418.188 71.997 A 34.446 34.446 0 0 0 419.946 69.944 A 28.488 28.488 0 0 0 422.974 65.259 A 17.985 17.985 0 0 0 423.795 63.406 A 14.434 14.434 0 0 0 424.756 58.301 Q 424.756 57.423 424.327 56.142 A 16.304 16.304 0 0 0 423.926 55.078 A 21.225 21.225 0 0 0 423.873 54.953 A 22.799 22.799 0 0 0 421.826 51.172 A 20.963 20.963 0 0 0 420.847 49.819 A 17.1 17.1 0 0 0 419.092 47.9 Q 418.233 47.099 417.442 46.768 A 2.798 2.798 0 0 0 416.357 46.533 A 59.299 59.299 0 0 0 415.757 46.536 A 65.083 65.083 0 0 0 411.426 46.729 A 448.792 448.792 0 0 0 410.141 46.829 A 516.469 516.469 0 0 0 406.104 47.168 A 337.637 337.637 0 0 1 403.247 47.406 A 391.542 391.542 0 0 1 400.244 47.632 A 102.613 102.613 0 0 1 398.288 47.752 A 119.844 119.844 0 0 1 393.75 47.9 Q 395.312 42.432 398.267 37.598 Q 401.221 32.764 405.005 28.711 A 60.861 60.861 0 0 1 413.11 21.436 A 72.321 72.321 0 0 1 415.838 19.496 A 60.543 60.543 0 0 1 421.68 15.991 A 53.452 53.452 0 0 1 425.331 14.248 A 41.881 41.881 0 0 1 429.834 12.598 A 35.803 35.803 0 0 1 431.215 12.212 Q 432.701 11.831 434.041 11.634 A 18.496 18.496 0 0 1 436.719 11.426 A 5.207 5.207 0 0 1 437.023 11.434 Q 437.611 11.469 437.866 11.646 A 0.908 0.908 0 0 1 438.054 11.822 Q 438.231 12.04 438.33 12.402 Q 438.477 13.212 438.098 14.436 A 10.645 10.645 0 0 1 437.793 15.283 Q 437.335 16.412 436.658 17.704 A 41.446 41.446 0 0 1 435.767 19.312 Q 434.473 21.533 432.715 23.926 Q 430.957 26.318 429.126 28.564 A 69.858 69.858 0 0 1 427.76 30.191 A 57.874 57.874 0 0 1 425.513 32.642 A 50.707 50.707 0 0 1 424.697 33.461 Q 424.035 34.111 423.428 34.654 A 24.845 24.845 0 0 1 422.314 35.596 A 52.047 52.047 0 0 0 422.818 36.118 A 60.314 60.314 0 0 0 424.316 37.598 A 245.54 245.54 0 0 0 426.465 39.624 A 647.374 647.374 0 0 0 427.509 40.594 A 536.788 536.788 0 0 0 428.491 41.504 A 1063.814 1063.814 0 0 1 429.06 42.029 Q 429.657 42.581 430.127 43.018 A 15.373 15.373 0 0 0 430.396 42.843 Q 431.308 42.241 432.238 41.444 A 25.74 25.74 0 0 0 433.911 39.868 A 39.95 39.95 0 0 0 434.868 38.852 A 45.558 45.558 0 0 0 437.646 35.474 A 60.532 60.532 0 0 0 441.064 30.371 A 61.938 61.938 0 0 0 441.844 29.034 A 53.767 53.767 0 0 0 443.872 25.098 A 41.438 41.438 0 0 0 444.821 22.885 A 32.357 32.357 0 0 0 445.752 20.19 A 21.827 21.827 0 0 0 446.055 19.055 Q 446.244 18.257 446.339 17.549 A 10.077 10.077 0 0 0 446.436 16.211 A 0.644 0.644 0 0 0 446.436 16.204 Q 446.434 16.008 446.313 15.552 A 19.891 19.891 0 0 0 446.045 14.624 A 13.889 13.889 0 0 0 445.898 14.185 A 10.145 10.145 0 0 0 445.752 13.794 A 33.038 33.038 0 0 0 445.743 13.772 Q 445.631 13.492 445.578 13.376 Z M 65.576 16.357 A 252.972 252.972 0 0 0 70.41 16.602 A 18.77 18.77 0 0 0 70.07 16.017 Q 69.884 15.708 69.664 15.365 A 39.993 39.993 0 0 0 69.092 14.502 A 50.804 50.804 0 0 0 68.442 13.569 A 62.273 62.273 0 0 0 67.236 11.938 A 214.911 214.911 0 0 0 65.112 9.204 A 225.916 225.916 0 0 0 64.044 7.861 A 183.683 183.683 0 0 0 63.037 6.616 A 301.258 301.258 0 0 0 62.767 6.286 Q 62.368 5.798 62.008 5.363 A 171.314 171.314 0 0 0 61.304 4.517 Q 60.547 3.613 60.205 3.223 A 127.577 127.577 0 0 0 57.794 3.245 A 113.964 113.964 0 0 0 45.288 4.15 A 153.956 153.956 0 0 0 40.057 4.918 A 127.694 127.694 0 0 0 31.934 6.519 A 142.96 142.96 0 0 0 26.718 7.83 A 111.181 111.181 0 0 0 20.63 9.668 A 193.164 193.164 0 0 0 17.579 10.717 Q 16.123 11.232 14.805 11.728 A 107.407 107.407 0 0 0 11.841 12.891 A 141.18 141.18 0 0 0 11.508 13.028 Q 9.188 13.987 7.522 14.776 A 41.161 41.161 0 0 0 6.055 15.503 A 63.235 63.235 0 0 0 5.482 15.806 Q 3.919 16.644 3.711 16.895 A 16.845 16.845 0 0 0 3.545 17.106 Q 3.032 17.768 2.466 18.628 A 32.976 32.976 0 0 0 1.245 20.63 A 21.731 21.731 0 0 0 1.21 20.693 Q 0.948 21.163 0.735 21.601 A 13.457 13.457 0 0 0 0.342 22.485 Q 0.104 23.079 0.032 23.497 A 1.954 1.954 0 0 0 0 23.828 A 1.44 1.44 0 0 0 0 23.855 Q 0.003 23.979 0.027 24.037 A 0.108 0.108 0 0 0 0.049 24.072 Q 0.049 24.121 0.098 24.121 A 77.687 77.687 0 0 1 1.517 26.801 A 67.232 67.232 0 0 1 4.932 34.766 A 84.945 84.945 0 0 1 5.806 37.384 A 73.444 73.444 0 0 1 7.788 45.02 A 86.727 86.727 0 0 1 8.247 47.487 A 75.29 75.29 0 0 1 9.131 54.614 A 133.461 133.461 0 0 1 9.346 58.126 A 107.554 107.554 0 0 1 9.473 63.232 A 110.166 110.166 0 0 1 9.424 66.589 A 82.033 82.033 0 0 1 9.277 69.629 A 130.897 130.897 0 0 1 9.221 70.425 Q 9.134 71.599 9.034 72.646 A 73.423 73.423 0 0 1 8.813 74.683 A 105.495 105.495 0 0 1 8.8 74.787 Q 8.606 76.351 8.411 77.53 A 38.226 38.226 0 0 1 8.276 78.296 A 351.72 351.72 0 0 0 8.235 78.518 Q 8.064 79.439 7.97 79.976 A 41.366 41.366 0 0 0 7.91 80.322 A 21.2 21.2 0 0 1 7.944 80.36 Q 8.385 80.852 9.302 81.934 A 246.409 246.409 0 0 0 10.297 83.099 A 309.253 309.253 0 0 0 11.377 84.351 A 269.037 269.037 0 0 1 13.574 86.914 A 63.313 63.313 0 0 0 13.621 86.969 Q 14.331 87.807 14.89 88.406 A 20.304 20.304 0 0 0 15.381 88.916 A 1669.913 1669.913 0 0 1 15.519 88.635 Q 16.503 86.633 17.857 83.89 A 5204.07 5204.07 0 0 1 18.872 81.836 A 645.27 645.27 0 0 0 21.088 77.307 A 855.761 855.761 0 0 0 23.486 72.314 A 555.771 555.771 0 0 0 26.013 66.937 A 646.674 646.674 0 0 0 28.613 61.255 A 420.034 420.034 0 0 0 33.667 49.609 A 305.591 305.591 0 0 0 34.85 46.725 A 272.214 272.214 0 0 0 38.086 38.33 A 163.617 163.617 0 0 0 38.102 38.287 Q 40.093 32.844 41.309 28.32 Q 40.805 27.716 40.013 26.893 A 57.317 57.317 0 0 0 39.233 26.099 A 114.722 114.722 0 0 0 37.836 24.725 A 137.398 137.398 0 0 0 36.328 23.291 A 158.456 158.456 0 0 0 33.228 20.459 A 146.57 146.57 0 0 0 33.191 20.427 Q 32.06 19.422 31.181 18.683 A 54.506 54.506 0 0 0 30.615 18.213 A 25.971 25.971 0 0 0 30.6 18.265 Q 30.395 18.967 29.832 21.028 A 912.367 912.367 0 0 0 29.541 22.095 A 356.714 356.714 0 0 1 29.501 22.243 Q 28.89 24.484 28.035 27.51 A 1033.661 1033.661 0 0 1 27.417 29.687 Q 26.73 32.1 25.925 34.843 A 990.124 990.124 0 0 1 24.414 39.941 A 453.173 453.173 0 0 1 23.541 42.824 A 509.822 509.822 0 0 1 20.703 51.782 Q 18.701 57.91 16.479 64.136 A 251.239 251.239 0 0 1 15.361 67.207 A 219.604 219.604 0 0 1 11.914 75.928 A 24.077 24.077 0 0 0 12.046 75.209 Q 12.152 74.583 12.242 73.868 A 47.281 47.281 0 0 0 12.402 72.412 A 41.252 41.252 0 0 0 12.412 72.329 Q 12.601 70.641 12.744 68.14 A 73.18 73.18 0 0 0 12.782 67.403 Q 12.836 66.273 12.863 65.001 A 131.833 131.833 0 0 0 12.891 62.207 A 105.308 105.308 0 0 0 12.89 61.976 Q 12.883 58.499 12.646 54.199 A 100.762 100.762 0 0 0 12.385 50.631 A 124.729 124.729 0 0 0 11.694 44.678 A 116.591 116.591 0 0 0 11.084 40.794 A 138.795 138.795 0 0 0 9.717 33.984 A 89.541 89.541 0 0 0 9.212 31.87 A 100.503 100.503 0 0 0 6.348 22.51 A 89.998 89.998 0 0 1 8.92 21.487 A 78.12 78.12 0 0 1 16.455 19.043 Q 21.387 17.725 26.318 16.992 A 106.382 106.382 0 0 1 36.279 15.991 A 179.312 179.312 0 0 1 37.542 15.928 A 197.531 197.531 0 0 1 46.68 15.723 Q 50.879 15.723 54.224 15.82 A 302.026 302.026 0 0 1 57.428 15.93 A 229.695 229.695 0 0 1 60.352 16.064 Q 63.135 16.211 65.576 16.357 Z M 192.383 16.895 L 192.383 17.627 A 21.422 21.422 0 0 1 191.565 23.406 A 25.021 25.021 0 0 1 191.138 24.78 A 36.223 36.223 0 0 1 188.331 30.96 A 40.877 40.877 0 0 1 187.744 31.958 A 47.96 47.96 0 0 1 182.715 38.77 Q 179.834 42.041 176.611 44.824 A 54.585 54.585 0 0 1 169.922 49.78 A 44.316 44.316 0 0 1 166.084 51.939 A 35.182 35.182 0 0 1 163.184 53.223 Q 162.646 52.441 161.841 51.343 A 99.019 99.019 0 0 0 161.005 50.22 A 115.977 115.977 0 0 0 160.107 49.048 A 241.136 241.136 0 0 0 158.228 46.655 Q 157.275 45.459 156.396 44.434 A 67.255 67.255 0 0 0 164.941 40.403 A 56.905 56.905 0 0 0 168.921 37.939 A 63.253 63.253 0 0 0 174.341 33.841 A 49.155 49.155 0 0 0 178.345 30.054 A 39.877 39.877 0 0 0 181.775 25.903 A 30.09 30.09 0 0 0 184.302 21.704 A 22.892 22.892 0 0 0 185.645 18.365 Q 186.24 16.438 186.351 14.641 A 13.281 13.281 0 0 0 186.377 13.818 A 3.641 3.641 0 0 0 186.314 13.156 A 4.465 4.465 0 0 0 186.23 12.793 A 2.38 2.38 0 0 0 185.919 12.097 A 2.197 2.197 0 0 0 185.742 11.865 A 1.813 1.813 0 0 0 185.106 11.403 A 2.3 2.3 0 0 0 184.839 11.304 A 1.856 1.856 0 0 0 184.437 11.23 Q 184.015 11.198 183.496 11.328 Q 181.524 11.748 179.209 12.78 A 32.276 32.276 0 0 0 178.442 13.135 A 45.615 45.615 0 0 0 175.61 14.618 A 59.179 59.179 0 0 0 172.632 16.431 Q 169.58 18.408 166.284 20.996 A 145.196 145.196 0 0 0 161.299 25.098 A 161.376 161.376 0 0 0 159.619 26.563 A 256.537 256.537 0 0 1 157.151 33.9 A 309.555 309.555 0 0 1 155.469 38.55 Q 153.125 44.873 150.391 51.147 Q 147.656 57.422 144.653 63.33 A 143.897 143.897 0 0 1 140.862 70.324 A 117.857 117.857 0 0 1 138.55 74.146 A 82.664 82.664 0 0 1 135.449 78.723 A 61.026 61.026 0 0 1 132.349 82.642 Q 130.117 85.225 127.999 86.758 A 14.924 14.924 0 0 1 126.367 87.793 A 8.742 8.742 0 0 1 125.666 88.125 Q 125.175 88.333 124.585 88.525 Q 123.535 88.867 121.973 89.014 Q 121.397 89.062 120.61 88.544 A 5.064 5.064 0 0 1 120.581 88.525 Q 119.775 87.988 118.945 87.158 A 22.28 22.28 0 0 1 117.908 86.044 A 26.543 26.543 0 0 1 117.285 85.303 A 95.321 95.321 0 0 1 116.486 84.302 A 79.32 79.32 0 0 1 115.747 83.35 Q 115.039 82.422 114.575 81.689 A 173.439 173.439 0 0 1 114.387 81.392 Q 114.152 81.018 114.029 80.819 A 12.874 12.874 0 0 1 113.965 80.713 A 3.423 3.423 0 0 1 113.63 79.748 A 4.624 4.624 0 0 1 113.55 78.979 A 7.455 7.455 0 0 1 113.548 78.798 A 7.377 7.377 0 0 1 113.77 77.002 A 48.909 48.909 0 0 1 114.899 73.684 Q 115.598 71.838 116.504 69.824 A 102.469 102.469 0 0 1 118.94 64.798 A 124.691 124.691 0 0 1 120.63 61.646 A 151.304 151.304 0 0 1 124.484 55.099 A 174.286 174.286 0 0 1 125.903 52.856 Q 128.809 48.34 132.153 43.872 Q 135.498 39.404 139.185 35.059 Q 142.871 30.713 146.777 26.758 Q 149.268 18.994 150.879 12.061 Q 152.113 6.752 152.573 2.503 A 49.35 49.35 0 0 0 152.783 0 A 18.599 18.599 0 0 1 156.494 2.002 A 29.909 29.909 0 0 1 158.75 3.727 A 25.731 25.731 0 0 1 159.668 4.541 Q 161.084 5.859 162.158 7.178 Q 162.981 8.187 163.546 9.025 A 15.202 15.202 0 0 1 163.867 9.521 Q 163.77 10.352 163.623 11.206 A 22.816 22.816 0 0 1 163.415 12.264 A 28.517 28.517 0 0 1 163.232 13.037 Q 168.164 9.863 172.925 8.081 A 28.497 28.497 0 0 1 178.466 6.596 A 23.745 23.745 0 0 1 182.178 6.299 A 3.448 3.448 0 0 1 183.085 6.428 Q 183.478 6.535 183.897 6.731 A 6.606 6.606 0 0 1 184.204 6.885 Q 185.303 7.471 186.426 8.423 A 21.902 21.902 0 0 1 188.335 10.257 A 24.278 24.278 0 0 1 188.599 10.547 Q 189.648 11.719 190.479 12.915 A 20.525 20.525 0 0 1 191.208 14.04 Q 191.535 14.584 191.788 15.093 A 12.495 12.495 0 0 1 191.821 15.161 A 8.597 8.597 0 0 1 192.091 15.767 Q 192.322 16.35 192.373 16.792 A 2.294 2.294 0 0 1 192.383 16.895 Z M 561.23 74.512 A 2.327 2.327 0 0 0 561.736 74.45 Q 562.344 74.313 563.184 73.877 A 25.362 25.362 0 0 0 564.303 73.256 Q 564.868 72.925 565.48 72.534 A 43.58 43.58 0 0 0 565.894 72.266 A 49.269 49.269 0 0 0 568.072 70.748 A 57.194 57.194 0 0 0 568.945 70.093 A 200.592 200.592 0 0 0 571.586 68.037 A 181.424 181.424 0 0 0 571.948 67.749 Q 573.389 66.602 574.512 65.649 Q 575.372 64.92 575.917 64.463 A 126.659 126.659 0 0 1 576.221 64.209 Q 576.658 64.646 577.263 65.324 A 52.191 52.191 0 0 1 577.271 65.332 A 145.838 145.838 0 0 0 577.863 65.991 A 117.818 117.818 0 0 0 578.418 66.602 A 67.856 67.856 0 0 1 577.537 67.466 Q 577.138 67.85 576.687 68.275 A 138.859 138.859 0 0 1 575.732 69.165 A 96.098 96.098 0 0 1 573.29 71.344 A 111.582 111.582 0 0 1 572.266 72.217 A 93.991 93.991 0 0 1 568.408 75.293 A 64.845 64.845 0 0 1 565.702 77.236 A 55.447 55.447 0 0 1 564.502 78.027 A 31.422 31.422 0 0 1 562.714 79.095 Q 561.794 79.603 560.937 79.98 A 11.791 11.791 0 0 1 559.952 80.367 Q 558.943 80.707 558.18 80.713 A 3.466 3.466 0 0 1 558.154 80.713 Q 557.227 80.713 555.981 80.249 Q 554.736 79.785 553.589 79.077 A 10.501 10.501 0 0 1 552.406 78.234 A 8.536 8.536 0 0 1 551.636 77.515 A 3.864 3.864 0 0 1 551.211 76.983 Q 551.006 76.669 550.911 76.359 A 1.805 1.805 0 0 1 550.83 75.83 A 16.29 16.29 0 0 1 550.993 73.937 Q 551.127 72.988 551.369 71.931 A 31.411 31.411 0 0 1 551.611 70.947 A 80.852 80.852 0 0 1 552.861 66.69 A 90.211 90.211 0 0 1 553.345 65.234 A 117.007 117.007 0 0 1 555.493 59.448 Q 556.564 56.781 557.487 54.647 A 142.021 142.021 0 0 1 557.617 54.346 Q 557.296 54.426 556.48 55.1 A 19.646 19.646 0 0 0 556.104 55.42 A 25.214 25.214 0 0 0 555.277 56.175 Q 554.856 56.575 554.385 57.052 A 60.315 60.315 0 0 0 553.394 58.081 A 50.788 50.788 0 0 0 551.949 59.686 Q 551.225 60.523 550.45 61.481 A 88.899 88.899 0 0 0 549.927 62.134 A 53.564 53.564 0 0 0 547.596 65.313 A 65.409 65.409 0 0 0 546.216 67.432 A 67.49 67.49 0 0 0 543.565 72.087 A 77.216 77.216 0 0 0 542.725 73.755 A 46.587 46.587 0 0 0 539.941 80.908 A 2.569 2.569 0 0 1 539.838 81.215 Q 539.711 81.522 539.526 81.689 A 0.769 0.769 0 0 1 539.286 81.833 Q 539.06 81.922 538.717 81.932 A 3.091 3.091 0 0 1 538.623 81.934 Q 538.184 81.934 537.256 81.494 A 21.48 21.48 0 0 1 536.12 80.912 A 26.9 26.9 0 0 1 535.303 80.444 Q 534.277 79.834 533.301 79.15 A 22.619 22.619 0 0 1 532.649 78.678 Q 532.348 78.451 532.097 78.242 A 9.876 9.876 0 0 1 531.738 77.93 Q 531.445 77.588 531.25 77.295 Q 531.055 77.002 531.055 76.416 A 24.797 24.797 0 0 1 531.205 73.8 Q 531.346 72.473 531.621 70.963 A 55.538 55.538 0 0 1 532.129 68.506 A 88.583 88.583 0 0 1 533.405 63.617 A 117.505 117.505 0 0 1 535.083 58.325 A 171.279 171.279 0 0 1 537.968 50.541 A 202.176 202.176 0 0 1 539.478 46.851 A 207.337 207.337 0 0 1 544.849 35.107 A 162.189 162.189 0 0 1 550.419 24.798 A 148.263 148.263 0 0 1 550.806 24.146 A 117.885 117.885 0 0 1 553.882 19.25 A 88.088 88.088 0 0 1 556.909 14.966 A 55.942 55.942 0 0 1 559.309 11.99 Q 560.494 10.625 561.639 9.52 A 29.067 29.067 0 0 1 562.671 8.569 Q 565.377 6.198 567.637 6.012 A 4.767 4.767 0 0 1 567.725 6.006 A 8.496 8.496 0 0 1 569.138 6.586 A 10.677 10.677 0 0 1 569.995 7.08 A 19.243 19.243 0 0 1 572.168 8.691 A 30.354 30.354 0 0 1 573.252 9.665 A 24.047 24.047 0 0 1 573.999 10.4 Q 574.805 11.23 575.244 11.816 Q 575.537 12.207 575.635 12.744 A 10.964 10.964 0 0 1 575.677 12.994 Q 575.714 13.228 575.727 13.387 A 1.843 1.843 0 0 1 575.732 13.525 A 8.182 8.182 0 0 1 575.606 14.896 Q 575.381 16.213 574.756 17.871 A 36.908 36.908 0 0 1 573.752 20.257 Q 573.01 21.869 572.021 23.682 A 71.081 71.081 0 0 1 570.074 27.02 A 95.259 95.259 0 0 1 567.749 30.591 A 133.367 133.367 0 0 1 563.857 35.991 A 155.115 155.115 0 0 1 562.183 38.159 A 156.276 156.276 0 0 1 557.33 44.023 A 174.147 174.147 0 0 1 555.591 45.996 A 142.654 142.654 0 0 1 548.193 53.662 A 110.03 110.03 0 0 0 546.838 57.535 A 98.349 98.349 0 0 0 546.436 58.789 A 85.208 85.208 0 0 1 548.351 56.862 Q 549.413 55.829 550.394 54.958 A 46.679 46.679 0 0 1 551.27 54.199 A 52.825 52.825 0 0 1 552.849 52.914 Q 554.108 51.932 555.176 51.245 A 26.742 26.742 0 0 1 556.194 50.62 Q 557.259 50.002 558.081 49.683 A 11.637 11.637 0 0 1 558.644 49.48 Q 559.214 49.292 559.62 49.239 A 2.283 2.283 0 0 1 559.912 49.219 Q 560.319 49.219 561.313 49.701 A 14.856 14.856 0 0 1 561.475 49.78 A 23.582 23.582 0 0 1 562.88 50.546 A 29.229 29.229 0 0 1 563.818 51.123 A 25.8 25.8 0 0 1 565.531 52.316 A 22.416 22.416 0 0 1 566.064 52.734 A 10.438 10.438 0 0 1 566.528 53.131 Q 567.151 53.699 567.334 54.102 Q 567.425 54.329 567.347 54.703 A 2.285 2.285 0 0 1 567.334 54.761 Q 567.236 55.176 567.139 55.42 A 153.261 153.261 0 0 1 566.721 56.653 Q 566.432 57.497 566.089 58.472 A 270.432 270.432 0 0 1 565.454 60.254 A 319.66 319.66 0 0 1 564.771 62.134 A 272.342 272.342 0 0 0 563.379 66.016 A 225.219 225.219 0 0 0 562.732 67.889 A 171.001 171.001 0 0 0 562.158 69.604 A 80.492 80.492 0 0 0 561.783 70.776 Q 561.584 71.416 561.42 71.984 A 43.185 43.185 0 0 0 561.279 72.485 Q 560.937 73.73 560.937 74.219 A 0.422 0.422 0 0 0 560.952 74.335 Q 560.989 74.465 561.122 74.499 A 0.432 0.432 0 0 0 561.23 74.512 Z M 327.93 55.713 L 326.27 60.596 Q 328.288 58.091 330.049 56.259 A 40.762 40.762 0 0 1 331.104 55.2 A 56.254 56.254 0 0 1 332.679 53.731 Q 333.423 53.065 334.097 52.52 A 25.757 25.757 0 0 1 334.985 51.831 Q 336.593 50.643 337.734 50.144 A 6.7 6.7 0 0 1 337.842 50.098 A 11.435 11.435 0 0 1 338.391 49.884 Q 339.16 49.609 339.6 49.609 Q 340.234 49.609 340.964 49.995 A 5.158 5.158 0 0 1 341.309 50.195 A 12.232 12.232 0 0 1 342.573 51.116 A 14.504 14.504 0 0 1 343.14 51.611 A 23.766 23.766 0 0 1 344.824 53.32 Q 345.567 54.155 346.088 54.682 A 17.418 17.418 0 0 0 346.143 54.736 A 2.771 2.771 0 0 1 346.516 55.194 A 1.991 1.991 0 0 1 346.802 55.884 A 6.333 6.333 0 0 1 346.924 57.129 A 15.562 15.562 0 0 1 346.729 59.528 Q 346.533 60.779 346.143 62.134 A 34.953 34.953 0 0 1 344.092 67.505 Q 342.822 70.166 341.211 72.559 A 31.816 31.816 0 0 1 339.6 74.752 A 23.337 23.337 0 0 1 337.939 76.611 A 23.96 23.96 0 0 0 339.921 75.679 A 28.436 28.436 0 0 0 340.845 75.171 A 51.803 51.803 0 0 0 343.799 73.34 Q 345.264 72.363 346.68 71.313 A 84.368 84.368 0 0 0 348.721 69.753 A 75.101 75.101 0 0 0 349.365 69.238 A 75.825 75.825 0 0 0 355.127 64.209 L 357.324 66.602 A 102.989 102.989 0 0 1 355.621 68.164 A 132.349 132.349 0 0 1 353.735 69.824 A 97.242 97.242 0 0 1 349.609 73.193 A 90.297 90.297 0 0 1 345.239 76.367 A 68.959 68.959 0 0 1 342.529 78.126 A 56.743 56.743 0 0 1 340.967 79.053 A 34.446 34.446 0 0 1 339.109 80.044 Q 338.092 80.545 337.158 80.908 A 12.708 12.708 0 0 1 336.007 81.297 Q 335.429 81.461 334.915 81.533 A 5.604 5.604 0 0 1 334.131 81.592 Q 333.261 81.592 331.961 81.09 A 12.615 12.615 0 0 1 331.934 81.079 Q 330.615 80.566 329.37 79.834 A 13.107 13.107 0 0 1 328.078 78.971 A 10.463 10.463 0 0 1 327.222 78.247 Q 326.468 77.534 326.343 76.939 A 1.122 1.122 0 0 1 326.318 76.709 A 0.625 0.625 0 0 1 326.446 76.337 Q 326.519 76.237 326.631 76.143 A 1.76 1.76 0 0 1 326.831 76.001 A 5.575 5.575 0 0 0 327.116 75.81 Q 327.437 75.583 327.878 75.223 A 29.809 29.809 0 0 0 328.32 74.854 Q 329.297 74.023 330.664 72.363 Q 331.969 70.779 333.585 67.816 A 60.604 60.604 0 0 0 333.74 67.529 A 57.879 57.879 0 0 0 335.498 63.892 A 94.273 94.273 0 0 0 336.279 62.073 A 74.392 74.392 0 0 0 336.963 60.376 A 56.977 56.977 0 0 0 337.401 59.211 Q 337.61 58.636 337.777 58.129 A 28.006 28.006 0 0 0 337.964 57.544 A 19.383 19.383 0 0 0 338.107 57.057 Q 338.307 56.335 338.328 55.984 A 1.291 1.291 0 0 0 338.33 55.908 Q 338.33 55.469 338.208 55.298 Q 338.086 55.127 337.988 55.029 Q 337.823 54.988 337.693 55.016 A 0.454 0.454 0 0 0 337.646 55.029 A 1.621 1.621 0 0 0 337.289 55.195 Q 336.707 55.538 335.638 56.504 A 39.286 39.286 0 0 0 334.888 57.202 A 28.612 28.612 0 0 0 333.522 58.605 Q 331.994 60.276 330.152 62.704 A 90.574 90.574 0 0 0 330.029 62.866 A 72.949 72.949 0 0 0 327.894 65.858 Q 326.074 68.539 324.121 71.851 A 83.584 83.584 0 0 0 320.759 78.186 A 108.867 108.867 0 0 0 318.213 83.936 A 2043.145 2043.145 0 0 0 313.623 97.168 Q 311.328 103.857 309.131 110.498 L 296.729 113.428 Q 299.561 105.371 302.612 97.437 Q 305.664 89.502 308.667 81.567 Q 311.67 73.633 314.575 65.674 A 529.573 529.573 0 0 0 320.117 49.707 A 8.303 8.303 0 0 1 320.189 49.458 Q 320.262 49.221 320.328 49.068 A 1.385 1.385 0 0 1 320.386 48.95 A 0.38 0.38 0 0 1 320.579 48.784 Q 320.706 48.73 320.898 48.73 Q 321.423 48.895 322.103 49.246 A 15.058 15.058 0 0 1 322.803 49.634 A 20.388 20.388 0 0 1 324.749 50.937 A 22.597 22.597 0 0 1 325.024 51.147 A 22.586 22.586 0 0 1 326.312 52.225 A 19.06 19.06 0 0 1 327.002 52.881 Q 327.881 53.76 328.223 54.395 A 0.243 0.243 0 0 1 328.256 54.473 Q 328.29 54.615 328.21 54.869 A 2.025 2.025 0 0 1 328.198 54.907 L 327.93 55.713 Z M 534.229 64.014 L 536.426 66.602 A 128.613 128.613 0 0 1 530.113 72.649 A 113.983 113.983 0 0 1 528.003 74.487 A 184.441 184.441 0 0 1 520.668 80.413 A 167.354 167.354 0 0 1 519.629 81.201 A 132.781 132.781 0 0 1 517.944 85.767 Q 517.041 88.086 516.064 90.43 A 45.818 45.818 0 0 1 512.769 96.606 A 53.125 53.125 0 0 1 509.311 101.44 A 48.208 48.208 0 0 1 508.789 102.075 A 49.779 49.779 0 0 1 505.585 105.573 A 43.432 43.432 0 0 1 504.492 106.616 A 46.789 46.789 0 0 1 502.338 108.49 A 35.183 35.183 0 0 1 500.269 110.059 A 29.442 29.442 0 0 1 498.552 111.176 Q 497.751 111.656 497.002 112.024 A 16.723 16.723 0 0 1 496.509 112.256 A 11.818 11.818 0 0 1 495.475 112.668 Q 494.937 112.852 494.458 112.944 A 4.784 4.784 0 0 1 493.555 113.037 Q 492.741 113.037 491.645 112.333 A 7.813 7.813 0 0 1 491.602 112.305 Q 490.479 111.572 489.478 110.474 Q 488.477 109.375 487.769 108.081 Q 487.061 106.787 487.061 105.615 A 7.853 7.853 0 0 1 487.871 102.189 A 10.617 10.617 0 0 1 488.794 100.635 A 21.993 21.993 0 0 1 490.563 98.47 Q 491.862 97.061 493.579 95.605 A 80.455 80.455 0 0 1 496.837 92.993 Q 498.65 91.612 500.732 90.161 A 5629.841 5629.841 0 0 1 505.005 87.189 A 7079.011 7079.011 0 0 1 509.619 83.984 Q 510.693 81.201 512.036 77.368 A 399.819 399.819 0 0 0 513.115 74.243 Q 513.595 72.836 514.125 71.255 A 830.907 830.907 0 0 0 515.234 67.92 A 38.812 38.812 0 0 1 512.405 71.392 A 45.342 45.342 0 0 1 511.133 72.729 Q 508.789 75.098 506.299 76.953 A 30.682 30.682 0 0 1 503.273 78.952 A 25.161 25.161 0 0 1 501.343 79.956 Q 499.3 80.907 497.541 81.07 A 7.748 7.748 0 0 1 496.826 81.104 Q 496.289 81.104 495.435 80.591 A 8.426 8.426 0 0 1 494.473 79.914 A 11.042 11.042 0 0 1 493.726 79.248 A 7.975 7.975 0 0 1 492.397 77.537 A 9.058 9.058 0 0 1 492.261 77.295 A 4.936 4.936 0 0 1 491.65 74.902 A 8.385 8.385 0 0 1 491.76 73.601 Q 491.943 72.44 492.432 71.021 A 23.076 23.076 0 0 1 493.39 68.683 Q 493.957 67.482 494.701 66.213 A 11.974 11.974 0 0 1 494.702 66.211 A 39.634 39.634 0 0 1 496.812 62.999 A 48.924 48.924 0 0 1 498.315 61.035 Q 500.439 58.398 503.101 56.079 A 37.511 37.511 0 0 1 508.911 51.929 Q 512.061 50.098 515.625 49.121 Q 516.162 49.121 517.139 49.536 Q 518.115 49.951 519.067 50.464 A 21.34 21.34 0 0 1 519.906 50.939 Q 520.296 51.172 520.632 51.4 A 12.793 12.793 0 0 1 520.728 51.465 A 9.501 9.501 0 0 1 520.959 51.629 Q 521.391 51.947 521.431 52.075 A 0.082 0.082 0 0 1 521.436 52.1 A 0.176 0.176 0 0 1 521.421 52.165 Q 521.39 52.243 521.289 52.344 A 0.864 0.864 0 0 1 521.243 52.365 Q 521.199 52.384 521.168 52.39 A 0.138 0.138 0 0 1 521.143 52.393 A 33.609 33.609 0 0 0 520.541 52.768 Q 519.58 53.381 518.262 54.297 Q 516.504 55.518 514.551 57.056 A 77.577 77.577 0 0 0 510.767 60.242 A 84.4 84.4 0 0 0 510.645 60.352 A 54.882 54.882 0 0 0 508.346 62.539 A 46.403 46.403 0 0 0 507.104 63.843 A 26.847 26.847 0 0 0 505.751 65.436 Q 505.146 66.209 504.673 66.952 A 16.051 16.051 0 0 0 504.541 67.163 A 8.475 8.475 0 0 0 504.005 68.17 Q 503.564 69.167 503.564 70.02 A 1.472 1.472 0 0 0 503.614 70.411 A 1.192 1.192 0 0 0 503.784 70.776 A 0.715 0.715 0 0 0 504.305 71.085 A 1.08 1.08 0 0 0 504.443 71.094 A 4.227 4.227 0 0 0 505.53 70.942 Q 506.313 70.733 507.202 70.239 A 17.405 17.405 0 0 0 508.906 69.151 A 22.939 22.939 0 0 0 510.352 68.018 A 41.101 41.101 0 0 0 512.718 65.838 A 47.635 47.635 0 0 0 513.574 64.966 A 110.972 110.972 0 0 0 516.263 62.055 A 100.249 100.249 0 0 0 516.626 61.646 A 89.542 89.542 0 0 0 517.987 60.065 A 67.638 67.638 0 0 0 519.189 58.594 A 114.636 114.636 0 0 0 519.72 57.919 Q 520.237 57.258 520.623 56.74 A 36.146 36.146 0 0 0 520.947 56.299 A 1.966 1.966 0 0 0 521.06 56.177 A 1.633 1.633 0 0 0 521.118 56.104 A 0.634 0.634 0 0 1 521.188 56.026 Q 521.25 55.967 521.338 55.908 A 0.741 0.741 0 0 1 521.557 56.01 Q 521.898 56.232 522.388 56.885 A 15.305 15.305 0 0 1 523.041 57.831 A 19.966 19.966 0 0 1 523.682 58.911 A 22.705 22.705 0 0 1 524.6 60.76 A 20.278 20.278 0 0 1 524.78 61.182 Q 525.234 62.28 525.244 62.772 A 1.072 1.072 0 0 1 525.244 62.793 L 525.244 62.891 A 0.155 0.155 0 0 1 525.241 62.918 Q 525.228 62.981 525.173 63.152 A 10.192 10.192 0 0 1 525.146 63.232 Q 524.735 64.541 524.152 66.651 A 236.196 236.196 0 0 0 523.779 68.018 Q 523.066 70.661 522.028 73.99 A 241.965 241.965 0 0 1 521.68 75.098 A 193.802 193.802 0 0 0 527.954 69.873 A 121.307 121.307 0 0 0 533.838 64.403 A 132.377 132.377 0 0 0 534.229 64.014 Z M 257.52 44.727 L 250.635 44.727 L 250.586 44.727 A 0.039 0.039 0 0 1 250.55 44.703 Q 250.54 44.684 250.538 44.65 A 0.329 0.329 0 0 1 250.537 44.629 A 1.136 1.136 0 0 1 250.554 44.443 Q 250.588 44.245 250.684 43.97 A 5.839 5.839 0 0 1 250.757 43.774 Q 250.977 43.213 251.294 42.603 A 6.667 6.667 0 0 1 252.026 41.479 A 3.313 3.313 0 0 1 252.283 41.195 Q 252.563 40.921 252.832 40.82 L 259.18 40.527 A 280.291 280.291 0 0 1 260.516 37.335 A 221.786 221.786 0 0 1 261.792 34.399 Q 263.037 31.592 264.014 29.59 Q 264.258 29.053 264.526 28.442 A 4.557 4.557 0 0 1 264.906 27.756 A 5.984 5.984 0 0 1 265.308 27.222 Q 265.728 26.722 266.377 26.189 A 12.688 12.688 0 0 1 266.675 25.952 Q 267.294 25.474 268.234 24.984 A 19.114 19.114 0 0 1 268.994 24.609 A 29.539 29.539 0 0 1 269.865 24.193 Q 270.353 23.969 270.911 23.73 A 57.778 57.778 0 0 1 271.606 23.438 Q 273.145 22.803 274.634 22.266 A 62.014 62.014 0 0 1 276.035 21.778 Q 276.702 21.555 277.305 21.374 A 37.477 37.477 0 0 1 277.344 21.362 A 16.664 16.664 0 0 1 277.911 21.202 Q 278.697 20.997 279.099 20.996 A 1.009 1.009 0 0 1 279.102 20.996 A 1.865 1.865 0 0 1 279.255 21.002 Q 279.59 21.03 279.59 21.191 L 279.59 21.289 A 0.111 0.111 0 0 1 279.586 21.315 Q 279.57 21.377 279.495 21.528 A 4.182 4.182 0 0 1 279.492 21.533 Q 279.253 21.932 278.688 23.097 A 100.169 100.169 0 0 0 278.418 23.657 Q 277.656 25.253 276.545 27.64 A 811.794 811.794 0 0 0 276.489 27.759 Q 275.418 30.061 274.134 32.959 A 437.719 437.719 0 0 0 273.95 33.374 A 316.494 316.494 0 0 0 272.54 36.615 A 368.167 368.167 0 0 0 271.094 40.039 L 282.812 39.6 A 0.581 0.581 0 0 1 282.951 39.614 Q 283.269 39.693 283.107 40.182 A 1.609 1.609 0 0 1 283.105 40.186 Q 282.91 40.771 282.373 41.553 A 18.138 18.138 0 0 1 281.645 42.536 A 22.379 22.379 0 0 1 281.128 43.164 Q 280.42 43.994 279.932 44.434 A 0.414 0.414 0 0 1 279.864 44.487 Q 279.789 44.535 279.667 44.583 A 2.485 2.485 0 0 1 279.541 44.629 Q 279.248 44.727 278.809 44.727 L 269.141 44.727 Q 267.383 48.975 265.771 53.32 A 229.635 229.635 0 0 0 263.891 58.581 A 191.397 191.397 0 0 0 262.891 61.572 Q 261.621 65.479 260.864 68.75 A 39.443 39.443 0 0 0 260.465 70.68 Q 260.113 72.645 260.108 74.074 A 11.768 11.768 0 0 0 260.107 74.121 A 0.422 0.422 0 0 0 260.122 74.237 Q 260.159 74.367 260.292 74.402 A 0.432 0.432 0 0 0 260.4 74.414 A 1.426 1.426 0 0 0 260.734 74.368 Q 261.068 74.287 261.53 74.06 A 9.13 9.13 0 0 0 262.012 73.804 A 19.744 19.744 0 0 0 262.855 73.294 Q 263.314 73.002 263.814 72.654 A 36.345 36.345 0 0 0 264.429 72.217 A 107.361 107.361 0 0 0 265.814 71.191 A 132.889 132.889 0 0 0 267.285 70.068 A 96.367 96.367 0 0 0 269.473 68.324 A 86.711 86.711 0 0 0 270.166 67.749 A 239.663 239.663 0 0 0 271.466 66.65 A 176.292 176.292 0 0 0 272.632 65.649 Q 273.73 64.697 274.316 64.209 Q 274.756 64.648 275.366 65.332 A 145.838 145.838 0 0 0 275.958 65.991 A 117.818 117.818 0 0 0 276.514 66.602 A 114.41 114.41 0 0 1 275.632 67.472 Q 274.835 68.253 273.828 69.214 A 83.773 83.773 0 0 1 271.486 71.363 A 98.07 98.07 0 0 1 270.337 72.363 A 137.542 137.542 0 0 1 266.431 75.586 A 58.334 58.334 0 0 1 263.936 77.467 A 49.11 49.11 0 0 1 262.476 78.467 A 35.159 35.159 0 0 1 260.726 79.55 Q 259.769 80.103 258.887 80.518 A 11.364 11.364 0 0 1 257.903 80.929 Q 256.91 81.287 256.155 81.298 A 3.283 3.283 0 0 1 256.104 81.299 Q 255.273 81.299 253.931 80.542 A 15.619 15.619 0 0 1 251.817 79.103 A 17.875 17.875 0 0 1 251.318 78.687 A 17.905 17.905 0 0 1 249.799 77.213 A 15.06 15.06 0 0 1 249.121 76.416 A 6.883 6.883 0 0 1 248.694 75.818 Q 248.193 75.024 248.193 74.414 A 8.223 8.223 0 0 1 248.25 73.515 Q 248.356 72.569 248.658 71.206 A 48.085 48.085 0 0 1 248.999 69.775 Q 249.691 67.048 250.762 63.653 A 166.325 166.325 0 0 1 251.123 62.524 A 233.56 233.56 0 0 1 252.533 58.307 A 288.628 288.628 0 0 1 254.126 53.809 A 515.133 515.133 0 0 1 257.52 44.727 Z M 477.832 56.201 L 477.734 56.299 A 34.355 34.355 0 0 1 477.076 57.07 Q 476.379 57.864 475.401 58.905 A 121.5 121.5 0 0 1 475.073 59.253 A 43.395 43.395 0 0 0 473.708 60.77 Q 473.112 61.463 472.471 62.255 A 87.131 87.131 0 0 0 471.143 63.94 Q 469.254 66.395 467.186 69.715 A 105.795 105.795 0 0 0 466.504 70.825 A 62.054 62.054 0 0 0 464.237 74.929 Q 463.123 77.126 462.03 79.645 A 104.594 104.594 0 0 0 461.719 80.371 A 12.995 12.995 0 0 1 461.54 80.77 Q 461.349 81.177 461.182 81.445 Q 460.983 81.764 460.491 81.823 A 2.001 2.001 0 0 1 460.254 81.836 A 3.594 3.594 0 0 1 459.486 81.747 Q 459.127 81.669 458.736 81.521 A 7.18 7.18 0 0 1 458.374 81.372 A 12.086 12.086 0 0 1 457.11 80.718 A 15.172 15.172 0 0 1 456.226 80.151 A 27.774 27.774 0 0 1 454.372 78.753 A 31.107 31.107 0 0 1 454.028 78.467 A 26.132 26.132 0 0 1 452.741 77.307 A 21.887 21.887 0 0 1 452.051 76.611 Q 452.051 76.337 452.286 75.123 A 63.579 63.579 0 0 1 452.319 74.951 A 59.394 59.394 0 0 1 452.467 74.223 Q 452.694 73.142 453.028 71.714 A 171.574 171.574 0 0 1 453.076 71.509 A 105.84 105.84 0 0 1 453.55 69.581 Q 453.801 68.597 454.096 67.509 A 181.642 181.642 0 0 1 454.297 66.772 A 145.877 145.877 0 0 1 455.396 62.986 A 171.168 171.168 0 0 1 455.957 61.182 A 162.416 162.416 0 0 1 457.966 55.248 A 177.978 177.978 0 0 1 457.983 55.2 A 83.624 83.624 0 0 1 460.352 49.316 A 62.743 62.743 0 0 1 462.376 50.328 Q 463.43 50.878 464.585 51.523 A 104.958 104.958 0 0 1 464.917 51.709 Q 467.432 53.125 469.58 55.029 A 338.381 338.381 0 0 0 468.408 58.203 Q 467.822 59.814 467.236 61.523 Q 470.238 58.093 472.426 55.894 A 64.637 64.637 0 0 1 472.534 55.786 A 85.378 85.378 0 0 1 473.981 54.371 Q 474.633 53.75 475.211 53.231 A 34.708 34.708 0 0 1 476.294 52.295 A 25.91 25.91 0 0 1 477.113 51.645 Q 478.1 50.895 478.784 50.562 A 7.618 7.618 0 0 1 479.261 50.348 Q 479.734 50.156 480.076 50.111 A 1.52 1.52 0 0 1 480.273 50.098 Q 480.76 50.098 481.621 50.471 A 11.42 11.42 0 0 1 482.178 50.732 A 17.994 17.994 0 0 1 483.935 51.744 A 21.417 21.417 0 0 1 484.741 52.295 A 18.599 18.599 0 0 1 486.089 53.354 A 14.739 14.739 0 0 1 486.987 54.199 A 5.74 5.74 0 0 1 487.404 54.672 Q 487.811 55.194 487.909 55.636 A 1.259 1.259 0 0 1 487.939 55.908 Q 487.939 56.055 487.891 56.274 A 5.888 5.888 0 0 1 487.863 56.392 Q 487.817 56.58 487.744 56.836 Q 487.476 57.675 487.103 58.722 A 100.375 100.375 0 0 1 486.743 59.717 A 256.539 256.539 0 0 1 485.786 62.276 A 287.336 287.336 0 0 1 485.449 63.159 L 484.082 66.724 A 113.171 113.171 0 0 0 483.435 68.451 A 91.154 91.154 0 0 0 482.861 70.068 Q 482.492 71.143 482.215 72.032 A 44.77 44.77 0 0 0 481.982 72.803 A 15.811 15.811 0 0 0 481.833 73.349 Q 481.641 74.109 481.641 74.512 A 0.422 0.422 0 0 0 481.655 74.628 Q 481.692 74.758 481.825 74.792 A 0.432 0.432 0 0 0 481.934 74.805 Q 482.343 74.805 483.063 74.437 A 9.017 9.017 0 0 0 483.545 74.17 A 21.872 21.872 0 0 0 484.395 73.639 Q 484.861 73.334 485.376 72.969 A 42.805 42.805 0 0 0 486.011 72.51 A 78.954 78.954 0 0 0 487.798 71.152 A 94.112 94.112 0 0 0 488.916 70.264 A 121.062 121.062 0 0 0 491.647 67.996 A 110.867 110.867 0 0 0 491.821 67.847 A 689.302 689.302 0 0 0 493.146 66.705 A 503.835 503.835 0 0 0 494.336 65.674 A 228.709 228.709 0 0 1 494.864 65.216 Q 495.374 64.775 495.741 64.465 A 50.977 50.977 0 0 1 496.045 64.209 Q 496.533 64.648 497.119 65.332 A 55.973 55.973 0 0 0 497.693 65.991 A 46.436 46.436 0 0 0 498.242 66.602 A 114.41 114.41 0 0 1 497.361 67.472 Q 496.564 68.253 495.557 69.214 A 83.773 83.773 0 0 1 493.214 71.363 A 98.07 98.07 0 0 1 492.065 72.363 A 137.542 137.542 0 0 1 488.159 75.586 A 62.498 62.498 0 0 1 485.674 77.467 A 51.912 51.912 0 0 1 484.229 78.467 A 33.177 33.177 0 0 1 482.441 79.582 Q 481.578 80.081 480.771 80.467 A 20.141 20.141 0 0 1 480.664 80.518 A 11.364 11.364 0 0 1 479.68 80.929 Q 478.688 81.287 477.932 81.298 A 3.283 3.283 0 0 1 477.881 81.299 A 2.764 2.764 0 0 1 477.338 81.24 Q 476.767 81.125 476.025 80.786 Q 474.902 80.273 473.853 79.517 A 9.173 9.173 0 0 1 472.507 78.34 A 8.073 8.073 0 0 1 472.07 77.832 A 4.155 4.155 0 0 1 471.653 77.2 Q 471.338 76.602 471.338 76.025 A 51.82 51.82 0 0 1 471.783 74.171 Q 472.108 72.913 472.534 71.484 Q 473.291 68.945 474.17 66.284 A 182.872 182.872 0 0 1 476.001 61.011 A 188.094 188.094 0 0 1 476.935 58.502 A 147.742 147.742 0 0 1 477.832 56.201 Z M 235.107 52.539 L 235.01 52.637 A 33.695 33.695 0 0 0 230.859 55.249 Q 228.906 56.689 227.393 57.959 A 79.271 79.271 0 0 0 224.942 60.156 A 68.533 68.533 0 0 0 224.121 60.938 Q 220.818 64.195 219.402 66.636 A 12.153 12.153 0 0 0 219.189 67.017 A 25.08 25.08 0 0 0 218.624 68.139 Q 217.822 69.843 217.822 70.703 A 1.472 1.472 0 0 0 217.852 71.011 Q 217.948 71.461 218.364 71.523 A 0.959 0.959 0 0 0 218.506 71.533 A 2.209 2.209 0 0 0 219.006 71.47 Q 219.542 71.345 220.239 70.972 Q 221.289 70.41 222.607 69.458 A 52.575 52.575 0 0 0 223.902 68.49 Q 224.574 67.973 225.303 67.382 A 86.309 86.309 0 0 0 225.513 67.212 A 526.734 526.734 0 0 0 227.962 65.202 A 593.757 593.757 0 0 0 228.809 64.502 A 36.925 36.925 0 0 0 231.738 61.865 A 36.585 36.585 0 0 0 232.983 60.608 A 47.264 47.264 0 0 0 234.277 59.18 Q 235.596 57.666 236.523 56.104 Q 236.523 56.055 236.572 56.006 Q 236.614 55.964 236.691 55.994 A 0.304 0.304 0 0 1 236.719 56.006 A 3.585 3.585 0 0 1 237.069 56.3 Q 237.413 56.626 237.809 57.13 A 12.498 12.498 0 0 1 237.939 57.3 A 15.496 15.496 0 0 1 238.986 58.881 A 17.455 17.455 0 0 1 239.209 59.277 A 23.27 23.27 0 0 1 239.875 60.592 A 19.384 19.384 0 0 1 240.21 61.353 Q 240.625 62.354 240.625 62.891 A 40.116 40.116 0 0 0 239.74 64.819 Q 239.33 65.785 239.026 66.664 A 22.713 22.713 0 0 0 238.892 67.065 A 49.384 49.384 0 0 0 238.475 68.41 Q 238.28 69.076 238.129 69.672 A 25.815 25.815 0 0 0 237.964 70.361 Q 237.724 71.432 237.624 72.265 A 11.022 11.022 0 0 0 237.573 72.778 A 42.887 42.887 0 0 0 237.541 73.25 Q 237.51 73.758 237.502 74.113 A 9.801 9.801 0 0 0 237.5 74.316 A 0.422 0.422 0 0 0 237.515 74.432 Q 237.552 74.562 237.684 74.597 A 0.432 0.432 0 0 0 237.793 74.609 A 0.999 0.999 0 0 0 238.049 74.57 Q 238.446 74.462 239.112 74.063 A 11.651 11.651 0 0 0 239.258 73.975 A 25.873 25.873 0 0 0 240.068 73.45 Q 240.778 72.974 241.602 72.363 A 64.673 64.673 0 0 0 242.963 71.326 A 82.216 82.216 0 0 0 244.409 70.166 A 171.623 171.623 0 0 0 246.922 68.067 A 154.987 154.987 0 0 0 247.266 67.773 A 212.544 212.544 0 0 0 248.566 66.65 A 156.859 156.859 0 0 0 249.731 65.625 A 297.232 297.232 0 0 0 250.249 65.164 Q 250.977 64.514 251.416 64.111 A 18.404 18.404 0 0 1 251.649 64.349 Q 251.968 64.68 252.378 65.132 A 56.021 56.021 0 0 1 252.515 65.283 A 230.472 230.472 0 0 0 253.142 65.978 Q 253.442 66.308 253.711 66.602 Q 252.905 67.34 251.88 68.298 A 434.171 434.171 0 0 0 250.903 69.214 A 140.316 140.316 0 0 1 249.207 70.782 A 165.635 165.635 0 0 1 247.388 72.412 A 132.826 132.826 0 0 1 243.506 75.708 Q 241.504 77.344 239.6 78.613 A 32.819 32.819 0 0 1 237.744 79.767 A 24.606 24.606 0 0 1 235.986 80.688 Q 234.277 81.494 233.008 81.494 A 5.285 5.285 0 0 1 232.086 81.409 Q 231.664 81.334 231.21 81.194 A 8.756 8.756 0 0 1 231.079 81.152 Q 230.029 80.811 229.15 80.2 Q 228.271 79.59 227.686 78.76 A 3.143 3.143 0 0 1 227.1 76.904 A 15.816 15.816 0 0 0 227.096 76.587 Q 227.09 76.303 227.075 75.952 Q 227.057 75.531 227.107 74.918 A 16.797 16.797 0 0 1 227.148 74.487 Q 227.216 73.866 227.375 73.061 A 28.95 28.95 0 0 1 227.539 72.29 A 30.116 30.116 0 0 1 227.787 71.281 Q 228.043 70.312 228.418 69.092 A 41.784 41.784 0 0 1 226.666 70.837 A 56.058 56.058 0 0 1 224.634 72.656 A 57.517 57.517 0 0 1 220.068 76.172 A 56.999 56.999 0 0 1 215.259 79.175 A 32.88 32.88 0 0 1 213.214 80.224 Q 212.183 80.705 211.228 81.05 A 19.103 19.103 0 0 1 210.791 81.201 A 2.059 2.059 0 0 1 210.661 81.248 Q 210.532 81.29 210.437 81.297 A 0.495 0.495 0 0 1 210.4 81.299 L 210.107 81.299 A 1.346 1.346 0 0 1 209.772 81.251 Q 209.368 81.146 208.813 80.811 A 7.164 7.164 0 0 1 207.915 80.161 A 9.348 9.348 0 0 1 207.227 79.517 A 8.431 8.431 0 0 1 205.884 77.686 A 4.725 4.725 0 0 1 205.454 76.628 A 3.86 3.86 0 0 1 205.322 75.635 A 1.711 1.711 0 0 1 205.333 75.477 Q 205.369 75.111 205.536 74.137 A 92.503 92.503 0 0 1 205.615 73.682 Q 205.895 72.097 206.908 69.69 A 39.314 39.314 0 0 1 207.007 69.458 A 26.93 26.93 0 0 1 208.073 67.27 Q 208.978 65.595 210.254 63.696 A 29.403 29.403 0 0 1 212.433 60.865 Q 213.628 59.484 215.1 58.073 A 51.544 51.544 0 0 1 216.113 57.129 A 40.698 40.698 0 0 1 220.215 53.906 A 44.827 44.827 0 0 1 222.205 52.625 A 60.032 60.032 0 0 1 224.463 51.318 A 25.258 25.258 0 0 1 229.492 49.219 Q 229.59 49.219 229.663 49.17 Q 229.729 49.126 229.854 49.2 A 0.673 0.673 0 0 1 229.883 49.219 Q 230.469 49.414 231.274 49.829 Q 232.08 50.244 232.886 50.708 A 15.436 15.436 0 0 1 233.643 51.172 A 11.557 11.557 0 0 1 234.302 51.636 Q 234.771 51.993 234.995 52.248 A 1.406 1.406 0 0 1 235.107 52.393 A 0.301 0.301 0 0 1 235.12 52.422 Q 235.149 52.498 235.107 52.539 Z M 299.316 52.539 L 299.219 52.637 A 33.695 33.695 0 0 0 295.068 55.249 Q 293.115 56.689 291.602 57.959 A 79.271 79.271 0 0 0 289.151 60.156 A 68.533 68.533 0 0 0 288.33 60.938 Q 285.027 64.195 283.611 66.636 A 12.153 12.153 0 0 0 283.398 67.017 A 25.08 25.08 0 0 0 282.833 68.139 Q 282.031 69.843 282.031 70.703 A 1.472 1.472 0 0 0 282.061 71.011 Q 282.157 71.461 282.573 71.523 A 0.959 0.959 0 0 0 282.715 71.533 A 2.209 2.209 0 0 0 283.215 71.47 Q 283.751 71.345 284.448 70.972 Q 285.498 70.41 286.816 69.458 A 52.575 52.575 0 0 0 288.111 68.49 Q 288.783 67.973 289.512 67.382 A 86.309 86.309 0 0 0 289.722 67.212 A 526.734 526.734 0 0 0 292.171 65.202 A 593.757 593.757 0 0 0 293.018 64.502 A 36.925 36.925 0 0 0 295.947 61.865 A 36.585 36.585 0 0 0 297.192 60.608 A 47.264 47.264 0 0 0 298.486 59.18 Q 299.805 57.666 300.732 56.104 Q 300.732 56.055 300.781 56.006 Q 300.823 55.964 300.9 55.994 A 0.304 0.304 0 0 1 300.928 56.006 A 3.585 3.585 0 0 1 301.278 56.3 Q 301.622 56.626 302.018 57.13 A 12.498 12.498 0 0 1 302.148 57.3 A 15.496 15.496 0 0 1 303.195 58.881 A 17.455 17.455 0 0 1 303.418 59.277 A 23.27 23.27 0 0 1 304.084 60.592 A 19.384 19.384 0 0 1 304.419 61.353 Q 304.834 62.354 304.834 62.891 A 40.116 40.116 0 0 0 303.949 64.819 Q 303.539 65.785 303.235 66.664 A 22.713 22.713 0 0 0 303.101 67.065 A 49.384 49.384 0 0 0 302.684 68.41 Q 302.489 69.076 302.338 69.672 A 25.815 25.815 0 0 0 302.173 70.361 Q 301.933 71.432 301.833 72.265 A 11.022 11.022 0 0 0 301.782 72.778 A 42.887 42.887 0 0 0 301.75 73.25 Q 301.719 73.758 301.711 74.113 A 9.801 9.801 0 0 0 301.709 74.316 A 0.422 0.422 0 0 0 301.724 74.432 Q 301.761 74.562 301.893 74.597 A 0.432 0.432 0 0 0 302.002 74.609 A 0.999 0.999 0 0 0 302.258 74.57 Q 302.655 74.462 303.321 74.063 A 11.651 11.651 0 0 0 303.467 73.975 A 25.873 25.873 0 0 0 304.277 73.45 Q 304.987 72.974 305.811 72.363 A 64.673 64.673 0 0 0 307.172 71.326 A 82.216 82.216 0 0 0 308.618 70.166 A 171.623 171.623 0 0 0 311.131 68.067 A 154.987 154.987 0 0 0 311.475 67.773 A 212.544 212.544 0 0 0 312.775 66.65 A 156.859 156.859 0 0 0 313.94 65.625 A 297.232 297.232 0 0 0 314.458 65.164 Q 315.186 64.514 315.625 64.111 A 18.404 18.404 0 0 1 315.858 64.349 Q 316.177 64.68 316.587 65.132 A 56.021 56.021 0 0 1 316.724 65.283 A 230.472 230.472 0 0 0 317.351 65.978 Q 317.651 66.308 317.92 66.602 Q 317.114 67.34 316.089 68.298 A 434.171 434.171 0 0 0 315.112 69.214 A 140.316 140.316 0 0 1 313.416 70.782 A 165.635 165.635 0 0 1 311.597 72.412 A 132.826 132.826 0 0 1 307.715 75.708 Q 305.713 77.344 303.809 78.613 A 32.819 32.819 0 0 1 301.953 79.767 A 24.606 24.606 0 0 1 300.195 80.688 Q 298.486 81.494 297.217 81.494 A 5.285 5.285 0 0 1 296.295 81.409 Q 295.873 81.334 295.419 81.194 A 8.756 8.756 0 0 1 295.288 81.152 Q 294.238 80.811 293.359 80.2 Q 292.48 79.59 291.895 78.76 A 3.143 3.143 0 0 1 291.309 76.904 A 15.816 15.816 0 0 0 291.305 76.587 Q 291.299 76.303 291.284 75.952 Q 291.266 75.531 291.316 74.918 A 16.797 16.797 0 0 1 291.357 74.487 Q 291.425 73.866 291.584 73.061 A 28.95 28.95 0 0 1 291.748 72.29 A 30.116 30.116 0 0 1 291.996 71.281 Q 292.252 70.312 292.627 69.092 A 41.784 41.784 0 0 1 290.875 70.837 A 56.058 56.058 0 0 1 288.843 72.656 A 57.517 57.517 0 0 1 284.277 76.172 A 56.999 56.999 0 0 1 279.468 79.175 A 32.88 32.88 0 0 1 277.423 80.224 Q 276.392 80.705 275.437 81.05 A 19.103 19.103 0 0 1 275 81.201 A 2.059 2.059 0 0 1 274.87 81.248 Q 274.741 81.29 274.646 81.297 A 0.495 0.495 0 0 1 274.609 81.299 L 274.316 81.299 A 1.346 1.346 0 0 1 273.981 81.251 Q 273.577 81.146 273.022 80.811 A 7.164 7.164 0 0 1 272.124 80.161 A 9.348 9.348 0 0 1 271.436 79.517 A 8.431 8.431 0 0 1 270.093 77.686 A 4.725 4.725 0 0 1 269.663 76.628 A 3.86 3.86 0 0 1 269.531 75.635 A 1.711 1.711 0 0 1 269.542 75.477 Q 269.578 75.111 269.745 74.137 A 92.503 92.503 0 0 1 269.824 73.682 Q 270.104 72.097 271.117 69.69 A 39.314 39.314 0 0 1 271.216 69.458 A 26.93 26.93 0 0 1 272.282 67.27 Q 273.187 65.595 274.463 63.696 A 29.403 29.403 0 0 1 276.642 60.865 Q 277.837 59.484 279.309 58.073 A 51.544 51.544 0 0 1 280.322 57.129 A 40.698 40.698 0 0 1 284.424 53.906 A 44.827 44.827 0 0 1 286.414 52.625 A 60.032 60.032 0 0 1 288.672 51.318 A 25.258 25.258 0 0 1 293.701 49.219 Q 293.799 49.219 293.872 49.17 Q 293.938 49.126 294.063 49.2 A 0.673 0.673 0 0 1 294.092 49.219 Q 294.678 49.414 295.483 49.829 Q 296.289 50.244 297.095 50.708 A 15.436 15.436 0 0 1 297.852 51.172 A 11.557 11.557 0 0 1 298.511 51.636 Q 298.98 51.993 299.204 52.248 A 1.406 1.406 0 0 1 299.316 52.393 A 0.301 0.301 0 0 1 299.329 52.422 Q 299.358 52.498 299.316 52.539 Z M 97.217 64.014 L 99.414 66.602 A 293.105 293.105 0 0 1 90.308 72.559 A 1530.555 1530.555 0 0 0 81.055 78.418 A 196.758 196.758 0 0 1 80.182 81.024 A 231.896 231.896 0 0 1 79.224 83.765 A 85.09 85.09 0 0 1 78.387 86.004 Q 77.618 87.982 76.611 90.332 A 52.026 52.026 0 0 1 71.738 99.082 A 48.381 48.381 0 0 1 71.558 99.341 A 55.22 55.22 0 0 1 68.227 103.627 A 43.66 43.66 0 0 1 65.552 106.47 A 36.305 36.305 0 0 1 62.661 109.001 Q 61.134 110.194 59.625 111.067 A 22.379 22.379 0 0 1 59.424 111.182 Q 57.271 112.397 55.439 112.748 A 7.623 7.623 0 0 1 54.004 112.891 Q 53.223 112.891 52.173 112.085 A 13.202 13.202 0 0 1 50.653 110.712 A 15.287 15.287 0 0 1 50.171 110.181 A 14.139 14.139 0 0 1 48.839 108.383 A 12.65 12.65 0 0 1 48.56 107.91 Q 47.983 106.885 47.911 106.196 A 1.827 1.827 0 0 1 47.9 106.006 A 10.971 10.971 0 0 1 48.549 102.357 A 14.655 14.655 0 0 1 49.561 100.122 A 25.528 25.528 0 0 1 51.538 97.101 Q 52.614 95.676 53.969 94.235 A 41.114 41.114 0 0 1 54.15 94.043 A 57.782 57.782 0 0 1 57.676 90.657 A 75.88 75.88 0 0 1 61.084 87.817 A 159.7 159.7 0 0 1 66.912 83.452 A 188.27 188.27 0 0 1 69.775 81.445 A 302.187 302.187 0 0 0 72.266 74.048 Q 73.486 70.264 74.585 66.675 A 1006.293 1006.293 0 0 0 75.647 63.184 A 843.697 843.697 0 0 0 76.636 59.888 A 998.957 998.957 0 0 1 77.319 57.602 Q 77.591 56.697 77.841 55.871 A 566.511 566.511 0 0 1 78.32 54.297 A 179.362 179.362 0 0 1 78.671 53.163 Q 79.017 52.059 79.299 51.22 A 54.385 54.385 0 0 1 79.541 50.513 A 26.075 26.075 0 0 1 79.658 50.187 Q 80.048 49.121 80.176 49.121 A 0.574 0.574 0 0 1 80.334 49.151 Q 80.722 49.27 81.714 49.854 A 26.24 26.24 0 0 1 83.227 50.818 A 32.743 32.743 0 0 1 84.302 51.587 A 30.947 30.947 0 0 1 85.875 52.838 A 25.388 25.388 0 0 1 86.719 53.589 A 8.526 8.526 0 0 1 87.131 53.998 Q 87.793 54.705 87.793 55.127 A 2.102 2.102 0 0 1 87.781 55.359 A 1.571 1.571 0 0 1 87.744 55.566 A 2.755 2.755 0 0 1 87.692 55.747 Q 87.662 55.838 87.624 55.938 A 4.829 4.829 0 0 1 87.598 56.006 A 215.928 215.928 0 0 0 86.682 58.813 A 161.998 161.998 0 0 0 85.889 61.377 A 329.134 329.134 0 0 0 85.193 63.727 A 256.184 256.184 0 0 0 84.57 65.894 A 579.839 579.839 0 0 0 84.009 67.896 A 460.126 460.126 0 0 0 83.496 69.751 A 3281.711 3281.711 0 0 0 83.02 71.49 A 2820.006 2820.006 0 0 0 82.568 73.145 Q 86.23 70.85 89.893 68.604 Q 93.555 66.357 97.217 64.014 Z M 75.098 64.209 L 77.49 66.602 Q 73.296 70.704 69.549 73.573 A 61.316 61.316 0 0 1 69.019 73.975 A 59.119 59.119 0 0 1 65.16 76.641 A 43.279 43.279 0 0 1 61.426 78.76 A 36.709 36.709 0 0 1 57.892 80.31 A 28.134 28.134 0 0 1 54.517 81.348 A 28.537 28.537 0 0 1 49.471 82.092 A 25.484 25.484 0 0 1 48.096 82.129 Q 46.777 82.129 45.166 81.152 Q 43.555 80.176 42.163 78.784 A 16.587 16.587 0 0 1 40.469 76.813 A 14.272 14.272 0 0 1 39.844 75.879 A 9.007 9.007 0 0 1 39.375 75.019 Q 38.944 74.106 38.918 73.385 A 2.556 2.556 0 0 1 38.916 73.291 A 25.426 25.426 0 0 1 39.303 68.769 A 21.009 21.009 0 0 1 40.015 65.942 Q 41.113 62.598 42.92 59.912 A 24.649 24.649 0 0 1 47.046 55.176 A 26.875 26.875 0 0 1 50.789 52.389 A 24.065 24.065 0 0 1 51.88 51.758 A 24.706 24.706 0 0 1 55.326 50.201 A 21.256 21.256 0 0 1 56.885 49.707 A 20.521 20.521 0 0 1 59.206 49.205 A 14.999 14.999 0 0 1 61.475 49.023 A 5.52 5.52 0 0 1 63.638 49.477 A 7.044 7.044 0 0 1 64.478 49.902 A 12.703 12.703 0 0 1 67.187 52.051 A 13.105 13.105 0 0 1 68.59 53.77 A 11.228 11.228 0 0 1 69.165 54.712 A 8.339 8.339 0 0 1 69.564 55.546 Q 69.742 55.983 69.832 56.378 A 3.403 3.403 0 0 1 69.922 57.129 A 4.423 4.423 0 0 1 69.552 58.86 Q 69.291 59.477 68.847 60.104 A 8.817 8.817 0 0 1 68.53 60.522 A 14.406 14.406 0 0 1 67.21 61.943 Q 66.521 62.597 65.673 63.262 A 28.844 28.844 0 0 1 64.6 64.062 A 43.508 43.508 0 0 1 62.182 65.657 Q 60.501 66.692 58.496 67.749 A 114.464 114.464 0 0 1 54.749 69.635 A 144.156 144.156 0 0 1 50.635 71.533 A 18.495 18.495 0 0 0 50.488 73.828 A 5.426 5.426 0 0 0 50.529 74.524 Q 50.628 75.281 50.96 75.69 A 1.292 1.292 0 0 0 51.147 75.879 A 1.757 1.757 0 0 0 51.64 76.15 Q 52.343 76.416 53.613 76.416 A 17.202 17.202 0 0 0 59.334 75.472 A 16.406 16.406 0 0 0 59.692 75.342 Q 62.549 74.268 65.186 72.559 Q 67.822 70.85 70.264 68.652 Q 72.705 66.455 75.098 64.209 Z M 180.518 67.627 L 178.174 65.234 A 544.876 544.876 0 0 0 179.198 64.247 Q 180.112 63.364 181.226 62.28 Q 183.008 60.547 184.717 58.789 Q 183.496 58.057 182.52 57.397 A 37.986 37.986 0 0 1 181.828 56.92 Q 181.49 56.681 181.196 56.46 A 20.067 20.067 0 0 1 180.859 56.201 A 53.89 53.89 0 0 1 180.124 55.673 Q 179.732 55.386 179.395 55.127 A 0.479 0.479 0 0 1 179.16 54.859 Q 179.124 54.768 179.11 54.652 A 1.354 1.354 0 0 1 179.102 54.492 Q 179.102 54.053 179.379 53.304 A 9.803 9.803 0 0 1 179.517 52.954 A 18.567 18.567 0 0 1 179.987 51.917 A 24.717 24.717 0 0 1 180.566 50.806 Q 181.201 49.658 181.934 48.462 Q 182.666 47.266 183.35 46.289 Q 183.814 45.625 184.2 45.131 A 15.215 15.215 0 0 1 184.546 44.702 A 8.756 8.756 0 0 1 184.724 44.497 Q 185.086 44.092 185.205 44.092 A 0.239 0.239 0 0 1 185.258 44.1 Q 185.381 44.131 185.71 44.27 A 15.859 15.859 0 0 1 185.864 44.336 A 22.176 22.176 0 0 1 186.444 44.598 A 27.666 27.666 0 0 1 187.061 44.897 Q 187.695 45.215 188.232 45.605 A 4.637 4.637 0 0 1 188.49 45.806 Q 188.808 46.074 188.916 46.289 A 2.183 2.183 0 0 1 188.937 46.422 Q 188.967 46.638 188.996 47.046 A 30.087 30.087 0 0 1 189.014 47.314 A 72.649 72.649 0 0 1 189.05 47.948 Q 189.066 48.233 189.081 48.55 A 147.026 147.026 0 0 1 189.111 49.219 A 52.52 52.52 0 0 1 191.992 50.816 A 60.706 60.706 0 0 1 193.018 51.44 A 128.887 128.887 0 0 1 194.934 52.655 A 101.062 101.062 0 0 1 196.68 53.809 A 67.805 67.805 0 0 1 200.17 56.232 A 62.137 62.137 0 0 1 200.391 56.396 A 2.203 2.203 0 0 1 200.801 56.717 A 1.531 1.531 0 0 1 201.196 57.373 Q 201.367 57.959 201.221 58.398 A 74.425 74.425 0 0 1 200.605 60.168 Q 200.169 61.371 199.634 62.744 A 391.7 391.7 0 0 0 197.803 67.529 Q 196.952 69.798 196.353 71.654 A 66.418 66.418 0 0 0 196.313 71.777 A 24.932 24.932 0 0 0 196.047 72.659 Q 195.707 73.875 195.703 74.498 A 2.308 2.308 0 0 0 195.703 74.512 A 0.422 0.422 0 0 0 195.718 74.628 Q 195.755 74.758 195.888 74.792 A 0.432 0.432 0 0 0 195.996 74.805 Q 196.405 74.805 197.126 74.437 A 9.017 9.017 0 0 0 197.607 74.17 A 21.872 21.872 0 0 0 198.458 73.639 Q 198.924 73.334 199.438 72.969 A 42.805 42.805 0 0 0 200.073 72.51 A 78.954 78.954 0 0 0 201.86 71.152 A 94.112 94.112 0 0 0 202.979 70.264 A 121.062 121.062 0 0 0 205.709 67.996 A 110.867 110.867 0 0 0 205.884 67.847 A 689.302 689.302 0 0 0 207.208 66.705 A 503.835 503.835 0 0 0 208.398 65.674 A 228.709 228.709 0 0 1 208.926 65.216 Q 209.436 64.775 209.803 64.465 A 50.977 50.977 0 0 1 210.107 64.209 Q 210.547 64.648 211.157 65.332 A 145.838 145.838 0 0 0 211.749 65.991 A 117.818 117.818 0 0 0 212.305 66.602 A 114.41 114.41 0 0 1 211.423 67.472 Q 210.626 68.253 209.619 69.214 A 83.773 83.773 0 0 1 207.277 71.363 A 98.07 98.07 0 0 1 206.128 72.363 A 137.542 137.542 0 0 1 202.222 75.586 A 58.334 58.334 0 0 1 199.727 77.467 A 49.11 49.11 0 0 1 198.267 78.467 A 35.159 35.159 0 0 1 196.517 79.55 Q 195.56 80.103 194.678 80.518 A 11.364 11.364 0 0 1 193.694 80.929 Q 192.701 81.287 191.946 81.298 A 3.283 3.283 0 0 1 191.895 81.299 A 2.764 2.764 0 0 1 191.352 81.24 Q 190.78 81.125 190.039 80.786 Q 188.916 80.273 187.891 79.517 A 9.336 9.336 0 0 1 186.442 78.202 A 8.434 8.434 0 0 1 186.133 77.832 A 4.155 4.155 0 0 1 185.716 77.2 Q 185.4 76.602 185.4 76.025 A 105.264 105.264 0 0 1 186.041 73.322 Q 186.453 71.686 186.865 70.313 A 100.678 100.678 0 0 1 187.401 68.581 Q 187.673 67.731 187.93 66.989 A 51.137 51.137 0 0 1 188.232 66.138 Q 188.867 64.404 189.355 63.33 L 190.088 61.719 A 11.907 11.907 0 0 1 188.965 61.182 L 187.891 60.596 Q 187.109 61.426 186.157 62.354 Q 185.205 63.281 184.229 64.209 A 98.741 98.741 0 0 1 182.275 66.016 A 137.452 137.452 0 0 0 181.348 66.858 A 101.218 101.218 0 0 0 180.518 67.627 Z M 437.494 81.24 A 2.764 2.764 0 0 0 438.037 81.299 A 4.421 4.421 0 0 0 438.915 81.204 Q 439.369 81.111 439.879 80.93 A 11.024 11.024 0 0 0 440.869 80.518 A 20.141 20.141 0 0 0 440.976 80.467 Q 441.783 80.081 442.646 79.582 A 33.177 33.177 0 0 0 444.434 78.467 A 51.912 51.912 0 0 0 445.879 77.467 A 62.498 62.498 0 0 0 448.364 75.586 A 137.542 137.542 0 0 0 452.271 72.363 A 98.07 98.07 0 0 0 453.419 71.363 A 83.773 83.773 0 0 0 455.762 69.214 Q 456.769 68.253 457.566 67.472 A 114.41 114.41 0 0 0 458.447 66.602 A 117.818 117.818 0 0 1 457.892 65.991 A 145.838 145.838 0 0 1 457.3 65.332 Q 456.689 64.648 456.25 64.209 A 50.977 50.977 0 0 0 455.946 64.465 Q 455.579 64.775 455.069 65.216 A 228.709 228.709 0 0 0 454.541 65.674 A 503.835 503.835 0 0 1 453.351 66.705 A 689.302 689.302 0 0 1 452.026 67.847 A 110.867 110.867 0 0 1 451.852 67.996 A 121.062 121.062 0 0 1 449.121 70.264 A 94.112 94.112 0 0 1 448.003 71.152 A 78.954 78.954 0 0 1 446.216 72.51 A 42.805 42.805 0 0 1 445.581 72.969 Q 445.066 73.334 444.6 73.639 A 21.872 21.872 0 0 1 443.75 74.17 A 9.017 9.017 0 0 1 443.268 74.437 Q 442.548 74.805 442.139 74.805 A 0.432 0.432 0 0 1 442.03 74.792 Q 441.897 74.758 441.86 74.628 A 0.422 0.422 0 0 1 441.846 74.512 Q 441.846 74.109 442.038 73.349 A 15.811 15.811 0 0 1 442.187 72.803 A 44.77 44.77 0 0 1 442.42 72.032 Q 442.697 71.143 443.066 70.068 A 91.154 91.154 0 0 1 443.64 68.451 A 113.171 113.171 0 0 1 444.287 66.724 L 445.654 63.159 A 287.336 287.336 0 0 0 445.992 62.276 A 256.539 256.539 0 0 0 446.948 59.717 A 100.375 100.375 0 0 0 447.308 58.722 Q 447.681 57.675 447.949 56.836 Q 448.022 56.58 448.068 56.392 A 5.888 5.888 0 0 0 448.096 56.274 Q 448.145 56.055 448.145 55.908 Q 448.145 55.356 447.562 54.651 A 6.135 6.135 0 0 0 447.119 54.175 A 16.557 16.557 0 0 0 446.521 53.619 A 19.097 19.097 0 0 0 444.8 52.271 A 29.771 29.771 0 0 0 443.691 51.532 A 23.118 23.118 0 0 0 442.334 50.732 Q 441.4 50.227 441.024 50.124 A 0.619 0.619 0 0 0 440.869 50.098 A 0.12 0.12 0 0 0 440.801 50.127 Q 440.579 50.295 440.039 51.416 Q 439.563 52.405 438.963 53.86 A 90.404 90.404 0 0 0 438.55 54.883 A 256.987 256.987 0 0 0 438.306 55.499 Q 437.934 56.442 437.527 57.493 A 435.953 435.953 0 0 0 436.646 59.79 A 134.784 134.784 0 0 0 434.644 65.43 Q 433.691 68.311 432.861 71.094 A 109.631 109.631 0 0 0 432.635 71.864 Q 432.305 73 432.036 74.024 A 61.537 61.537 0 0 0 431.543 76.025 Q 431.543 76.602 431.858 77.2 A 4.155 4.155 0 0 0 432.275 77.832 A 8.434 8.434 0 0 0 432.585 78.202 A 9.336 9.336 0 0 0 434.033 79.517 Q 435.059 80.273 436.182 80.786 Q 436.923 81.125 437.494 81.24 Z M 121.68 79.004 A 1.498 1.498 0 0 0 122.352 78.818 Q 123.323 78.323 124.707 76.514 A 35.33 35.33 0 0 0 126.071 74.588 Q 126.748 73.567 127.475 72.352 A 85.694 85.694 0 0 0 128.979 69.727 Q 131.015 66.034 133.248 61.296 A 216.056 216.056 0 0 0 133.984 59.717 A 266.059 266.059 0 0 0 137.912 50.763 A 305.252 305.252 0 0 0 139.209 47.607 A 180.422 180.422 0 0 0 133.739 54.437 A 161.597 161.597 0 0 0 132.056 56.689 A 126.492 126.492 0 0 0 128.979 61.066 A 97.939 97.939 0 0 0 126.343 65.21 A 65.917 65.917 0 0 0 124.429 68.613 Q 123.328 70.723 122.559 72.632 Q 121.617 74.968 121.324 76.83 A 10.231 10.231 0 0 0 121.191 78.418 A 1.027 1.027 0 0 0 121.212 78.635 Q 121.292 79.004 121.68 79.004 Z M 556.934 32.52 A 263.369 263.369 0 0 0 554.663 37.476 Q 553.564 39.941 552.539 42.432 A 245.923 245.923 0 0 0 558.887 33.911 A 147.5 147.5 0 0 0 562.474 28.643 A 121.19 121.19 0 0 0 564.38 25.61 A 74.57 74.57 0 0 0 566.437 22.014 Q 567.353 20.297 568.063 18.712 A 43.962 43.962 0 0 0 568.262 18.262 A 24.024 24.024 0 0 0 569.034 16.261 Q 569.727 14.175 569.727 12.598 A 4.512 4.512 0 0 0 569.715 12.26 Q 569.659 11.523 569.336 11.523 A 0.715 0.715 0 0 0 569.005 11.623 Q 568.451 11.92 567.554 13.11 Q 566.357 14.697 564.697 17.48 A 90.746 90.746 0 0 0 563.408 19.719 Q 562.852 20.715 562.265 21.815 A 160.248 160.248 0 0 0 561.06 24.121 A 264.194 264.194 0 0 0 559.039 28.149 A 329.535 329.535 0 0 0 556.934 32.52 Z M 65.576 91.992 A 29.557 29.557 0 0 0 66.393 90.208 A 32.415 32.415 0 0 0 66.504 89.941 A 363.595 363.595 0 0 1 67.191 88.275 A 415.129 415.129 0 0 1 67.432 87.695 A 75.965 75.965 0 0 0 63.389 90.941 A 65.094 65.094 0 0 0 61.719 92.432 A 45.628 45.628 0 0 0 59.031 95.123 A 36.584 36.584 0 0 0 57.251 97.217 Q 55.371 99.609 54.321 102.026 A 12.328 12.328 0 0 0 53.288 106.312 A 11.763 11.763 0 0 0 53.271 106.934 Q 53.271 107.564 53.728 107.613 A 0.752 0.752 0 0 0 53.809 107.617 Q 54.687 107.617 56.177 106.226 Q 57.39 105.092 58.716 103.392 A 38.894 38.894 0 0 0 59.326 102.588 A 55.989 55.989 0 0 0 61.298 99.731 A 69.931 69.931 0 0 0 62.646 97.559 A 57.573 57.573 0 0 0 65.416 92.34 A 52.921 52.921 0 0 0 65.576 91.992 Z M 492.822 106.494 Q 493.799 106.494 495.63 105.005 Q 497.461 103.516 499.512 101.196 A 56.636 56.636 0 0 0 502.422 97.61 A 66.189 66.189 0 0 0 503.54 96.069 Q 505.518 93.262 506.836 90.625 Q 503.662 92.92 501.025 94.946 Q 498.389 96.973 496.509 98.877 Q 494.827 100.58 493.81 102.186 A 13.639 13.639 0 0 0 493.579 102.563 A 8.057 8.057 0 0 0 492.827 104.225 A 6.213 6.213 0 0 0 492.529 106.104 A 0.765 0.765 0 0 0 492.541 106.245 Q 492.586 106.48 492.796 106.493 A 0.411 0.411 0 0 0 492.822 106.494 Z M 457.345 35.298 A 1.367 1.367 0 0 0 457.373 35.205 A 0.333 0.333 0 0 0 457.338 35.069 Q 457.232 34.839 456.809 34.455 A 8.55 8.55 0 0 0 456.519 34.204 A 12.671 12.671 0 0 0 456.404 34.11 Q 455.996 33.78 455.514 33.445 A 21.359 21.359 0 0 0 454.468 32.764 A 20.94 20.94 0 0 0 452.002 31.47 Q 450.732 30.908 449.854 30.908 A 0.455 0.455 0 0 0 449.689 30.943 Q 449.368 31.068 448.898 31.65 A 8.427 8.427 0 0 0 448.608 32.031 Q 448.193 32.61 447.784 33.3 A 24.327 24.327 0 0 0 447.021 34.692 A 27.416 27.416 0 0 0 445.654 37.866 A 16.915 16.915 0 0 0 445.6 38.02 Q 445.252 39.023 445.131 39.789 A 4.795 4.795 0 0 0 445.068 40.527 Q 445.068 40.726 445.6 41.15 A 7.813 7.813 0 0 0 445.874 41.357 Q 446.68 41.943 447.827 42.554 A 22.866 22.866 0 0 0 450.22 43.652 A 11.091 11.091 0 0 0 450.877 43.888 Q 451.282 44.018 451.641 44.093 A 4.739 4.739 0 0 0 452.344 44.189 Q 452.637 44.189 453.125 43.579 A 8.63 8.63 0 0 0 453.357 43.276 Q 453.739 42.751 454.15 42.041 A 39.78 39.78 0 0 0 454.694 41.071 A 49.113 49.113 0 0 0 455.249 40.015 A 44.374 44.374 0 0 0 455.653 39.204 A 37.044 37.044 0 0 0 456.25 37.915 A 155.596 155.596 0 0 0 456.513 37.313 Q 456.789 36.678 457.007 36.157 A 41.055 41.055 0 0 0 457.047 36.062 Q 457.271 35.523 457.345 35.298 Z M 95.48 35.298 A 1.367 1.367 0 0 0 95.508 35.205 A 0.333 0.333 0 0 0 95.472 35.069 Q 95.366 34.839 94.944 34.455 A 8.55 8.55 0 0 0 94.653 34.204 A 12.671 12.671 0 0 0 94.538 34.11 Q 94.131 33.78 93.649 33.445 A 21.359 21.359 0 0 0 92.603 32.764 A 20.94 20.94 0 0 0 90.137 31.47 Q 88.867 30.908 87.988 30.908 A 0.412 0.412 0 0 0 87.819 30.95 Q 87.44 31.124 86.792 32.007 A 15.497 15.497 0 0 0 86.685 32.155 Q 86.31 32.678 85.936 33.291 A 25.867 25.867 0 0 0 85.181 34.619 Q 84.375 36.133 83.789 37.793 A 17.261 17.261 0 0 0 83.777 37.827 Q 83.402 38.896 83.272 39.72 A 5.207 5.207 0 0 0 83.203 40.527 Q 83.203 40.726 83.735 41.15 A 7.813 7.813 0 0 0 84.009 41.357 Q 84.814 41.943 85.962 42.554 A 22.866 22.866 0 0 0 88.354 43.652 A 11.091 11.091 0 0 0 89.012 43.888 Q 89.417 44.018 89.776 44.093 A 4.739 4.739 0 0 0 90.479 44.189 Q 90.771 44.189 91.26 43.579 A 8.63 8.63 0 0 0 91.491 43.276 Q 91.874 42.751 92.285 42.041 A 39.78 39.78 0 0 0 92.828 41.071 A 49.113 49.113 0 0 0 93.384 40.015 A 44.374 44.374 0 0 0 93.788 39.204 A 37.044 37.044 0 0 0 94.385 37.915 A 155.596 155.596 0 0 0 94.648 37.313 Q 94.923 36.678 95.142 36.157 A 41.055 41.055 0 0 0 95.181 36.062 Q 95.406 35.523 95.48 35.298 Z M 58.176 55.425 A 7.549 7.549 0 0 0 58.154 55.444 A 12.123 12.123 0 0 0 57.129 56.489 Q 56.635 57.054 56.14 57.736 A 21.79 21.79 0 0 0 55.811 58.203 A 26.888 26.888 0 0 0 54.532 60.272 A 34.95 34.95 0 0 0 53.564 62.134 Q 52.49 64.355 51.709 66.748 A 57.856 57.856 0 0 0 55.249 64.258 A 26.702 26.702 0 0 0 57.62 62.234 A 23.306 23.306 0 0 0 58.35 61.499 A 15.734 15.734 0 0 0 59.718 59.855 A 12.75 12.75 0 0 0 60.547 58.545 A 6.969 6.969 0 0 0 61.182 56.984 A 5.691 5.691 0 0 0 61.377 55.518 A 1.23 1.23 0 0 0 61.108 54.736 A 0.863 0.863 0 0 0 60.605 54.426 A 1.356 1.356 0 0 0 60.303 54.395 Q 59.335 54.395 58.176 55.425 Z" vector-effect="non-scaling-stroke"/>
</g>
</svg>